<svg width="24" height="24" viewBox="0 0 24 24" fill="none" xmlns="http://www.w3.org/2000/svg">
<path fill-rule="evenodd" clip-rule="evenodd" d="M24 12C24 18.6274 18.6274 24 12 24C5.37258 24 0 18.6274 0 12C0 5.37258 5.37258 0 12 0C18.6274 0 24 5.37258 24 12Z" fill="#0D6EFD"/>
<path fill-rule="evenodd" clip-rule="evenodd" d="M15.6098 9.10983C15.7563 8.96339 15.9937 8.96339 16.1402 9.10983C16.2733 9.24297 16.2854 9.4513 16.1765 9.59811L16.1402 9.64017L11.1402 14.6402C11.007 14.7733 10.7987 14.7854 10.6519 14.6765L10.6098 14.6402L8.10983 12.1402C7.96339 11.9937 7.96339 11.7563 8.10983 11.6098C8.24297 11.4767 8.4513 11.4646 8.59811 11.5735L8.64017 11.6098L10.875 13.8445L15.6098 9.10983Z" fill="white"/>
</svg>
