<svg width="129" height="18" viewBox="0 0 129 18" fill="none" xmlns="http://www.w3.org/2000/svg">
<path fill-rule="evenodd" clip-rule="evenodd" d="M13.0804 17.4167C12.8518 17.4167 12.6487 17.3406 12.471 17.239L8.86551 14.8777C8.81473 14.8523 8.78934 14.8523 8.73856 14.8777L5.13309 17.239C4.92996 17.3406 4.72684 17.4167 4.49832 17.4167C4.14285 17.4167 3.81278 17.2644 3.60965 16.9851C3.38113 16.7058 3.30496 16.3503 3.40653 16.0203L4.42215 11.5769C4.42215 11.5261 4.42215 11.4753 4.37137 11.45L1.0452 8.45386C0.715119 8.14917 0.588166 7.66675 0.715119 7.23511C0.867463 6.80347 1.24832 6.49878 1.70535 6.47339L5.99637 6.14331C6.04715 6.14331 6.07254 6.11792 6.09793 6.06714L7.69754 1.90308C7.90067 1.44604 8.30692 1.16675 8.78934 1.16675C9.27176 1.16675 9.67801 1.44604 9.85574 1.90308L11.4554 6.06714C11.4807 6.11792 11.5061 6.14331 11.5569 6.14331L15.8479 6.47339C16.305 6.49878 16.6858 6.80347 16.8382 7.23511C16.9905 7.66675 16.8636 8.14917 16.5081 8.45386L13.1819 11.45C13.1565 11.4753 13.1311 11.5261 13.1311 11.5769L14.1722 16.0203C14.2483 16.3503 14.1722 16.7058 13.969 16.9851C13.7659 17.2644 13.4104 17.4167 13.0804 17.4167ZM40.471 17.239C40.6487 17.3406 40.8518 17.4167 41.0804 17.4167C41.4104 17.4167 41.7659 17.2644 41.969 16.9851C42.1721 16.7058 42.2483 16.3503 42.1722 16.0203L41.1311 11.5769C41.1311 11.5261 41.1565 11.4753 41.1819 11.45L44.5081 8.45386C44.8636 8.14917 44.9905 7.66675 44.8382 7.23511C44.6858 6.80347 44.305 6.49878 43.8479 6.47339L39.5569 6.14331C39.5061 6.14331 39.4807 6.11792 39.4554 6.06714L37.8557 1.90308C37.678 1.44604 37.2718 1.16675 36.7893 1.16675C36.3069 1.16675 35.9007 1.44604 35.6975 1.90308L34.0979 6.06714C34.0725 6.11792 34.0471 6.14331 33.9964 6.14331L29.7054 6.47339C29.2483 6.49878 28.8675 6.80347 28.7151 7.23511C28.5882 7.66675 28.7151 8.14917 29.0452 8.45386L32.3714 11.45C32.4222 11.4753 32.4222 11.5261 32.4222 11.5769L31.4065 16.0203C31.305 16.3503 31.3811 16.7058 31.6097 16.9851C31.8128 17.2644 32.1429 17.4167 32.4983 17.4167C32.7268 17.4167 32.93 17.3406 33.1331 17.239L36.7386 14.8777C36.7893 14.8523 36.8147 14.8523 36.8655 14.8777L40.471 17.239ZM69.0804 17.4167C68.8518 17.4167 68.6487 17.3406 68.471 17.239L64.8655 14.8777C64.8147 14.8523 64.7893 14.8523 64.7386 14.8777L61.1331 17.239C60.93 17.3406 60.7268 17.4167 60.4983 17.4167C60.1429 17.4167 59.8128 17.2644 59.6096 16.9851C59.3811 16.7058 59.305 16.3503 59.4065 16.0203L60.4221 11.5769C60.4221 11.5261 60.4221 11.4753 60.3714 11.45L57.0452 8.45386C56.7151 8.14917 56.5882 7.66675 56.7151 7.23511C56.8675 6.80347 57.2483 6.49878 57.7054 6.47339L61.9964 6.14331C62.0471 6.14331 62.0725 6.11792 62.0979 6.06714L63.6975 1.90308C63.9007 1.44604 64.3069 1.16675 64.7893 1.16675C65.2718 1.16675 65.678 1.44604 65.8557 1.90308L67.4554 6.06714C67.4807 6.11792 67.5061 6.14331 67.5569 6.14331L71.8479 6.47339C72.305 6.49878 72.6858 6.80347 72.8382 7.23511C72.9905 7.66675 72.8636 8.14917 72.5081 8.45386L69.1819 11.45C69.1565 11.4753 69.1311 11.5261 69.1311 11.5769L70.1721 16.0203C70.2483 16.3503 70.1721 16.7058 69.969 16.9851C69.7659 17.2644 69.4104 17.4167 69.0804 17.4167ZM96.471 17.239C96.6487 17.3406 96.8518 17.4167 97.0804 17.4167C97.4104 17.4167 97.7659 17.2644 97.969 16.9851C98.1721 16.7058 98.2483 16.3503 98.1722 16.0203L97.1311 11.5769C97.1311 11.5261 97.1565 11.4753 97.1819 11.45L100.508 8.45386C100.864 8.14917 100.991 7.66675 100.838 7.23511C100.686 6.80347 100.305 6.49878 99.8479 6.47339L95.5569 6.14331C95.5061 6.14331 95.4807 6.11792 95.4554 6.06714L93.8557 1.90308C93.678 1.44604 93.2718 1.16675 92.7893 1.16675C92.3069 1.16675 91.9007 1.44604 91.6975 1.90308L90.0979 6.06714C90.0725 6.11792 90.0471 6.14331 89.9964 6.14331L85.7054 6.47339C85.2483 6.49878 84.8675 6.80347 84.7151 7.23511C84.5882 7.66675 84.7151 8.14917 85.0452 8.45386L88.3714 11.45C88.4221 11.4753 88.4221 11.5261 88.4221 11.5769L87.4065 16.0203C87.305 16.3503 87.3811 16.7058 87.6096 16.9851C87.8128 17.2644 88.1429 17.4167 88.4983 17.4167C88.7268 17.4167 88.93 17.3406 89.1331 17.239L92.7386 14.8777C92.7893 14.8523 92.8147 14.8523 92.8655 14.8777L96.471 17.239ZM124.471 17.239C124.649 17.3406 124.852 17.4167 125.08 17.4167C125.41 17.4167 125.766 17.2644 125.969 16.9851C126.172 16.7058 126.248 16.3503 126.172 16.0203L125.131 11.5769C125.131 11.5261 125.157 11.4753 125.182 11.45L128.508 8.45386C128.864 8.14917 128.991 7.66675 128.838 7.23511C128.686 6.80347 128.305 6.49878 127.848 6.47339L123.557 6.14331C123.506 6.14331 123.481 6.11792 123.455 6.06714L121.856 1.90308C121.678 1.44604 121.272 1.16675 120.789 1.16675C120.307 1.16675 119.901 1.44604 119.698 1.90308L118.098 6.06714C118.073 6.11792 118.047 6.14331 117.996 6.14331L113.705 6.47339C113.248 6.49878 112.867 6.80347 112.715 7.23511C112.588 7.66675 112.715 8.14917 113.045 8.45386L116.371 11.45C116.422 11.4753 116.422 11.5261 116.422 11.5769L115.407 16.0203C115.305 16.3503 115.381 16.7058 115.61 16.9851C115.813 17.2644 116.143 17.4167 116.498 17.4167C116.727 17.4167 116.93 17.3406 117.133 17.239L120.739 14.8777C120.789 14.8523 120.815 14.8523 120.866 14.8777L124.471 17.239Z" fill="#FD7E14"/>
</svg>
