<svg width="40" height="40" viewBox="0 0 40 40" fill="none" xmlns="http://www.w3.org/2000/svg">
<rect width="40" height="40" rx="3" fill="#212121"/>
<path d="M19.8555 25.098C19.2488 25.098 18.6561 25.0187 18.0775 24.86C17.4988 24.7013 17.0368 24.5007 16.6915 24.258L17.3635 22.928C17.6995 23.152 18.1008 23.334 18.5675 23.474C19.0435 23.6047 19.5101 23.67 19.9675 23.67C21.0128 23.67 21.5355 23.3947 21.5355 22.844C21.5355 22.5827 21.4001 22.4007 21.1295 22.298C20.8681 22.1953 20.4435 22.0973 19.8555 22.004C19.2395 21.9107 18.7355 21.8033 18.3435 21.682C17.9608 21.5607 17.6248 21.3507 17.3355 21.052C17.0555 20.744 16.9155 20.3193 16.9155 19.778C16.9155 19.0687 17.2095 18.504 17.7975 18.084C18.3948 17.6547 19.1975 17.44 20.2055 17.44C20.7188 17.44 21.2321 17.5007 21.7455 17.622C22.2588 17.734 22.6788 17.888 23.0055 18.084L22.3335 19.414C21.6988 19.0407 20.9848 18.854 20.1915 18.854C19.6781 18.854 19.2861 18.9333 19.0155 19.092C18.7541 19.2413 18.6235 19.442 18.6235 19.694C18.6235 19.974 18.7635 20.1747 19.0435 20.296C19.3328 20.408 19.7761 20.5153 20.3735 20.618C20.9708 20.7113 21.4608 20.8187 21.8435 20.94C22.2261 21.0613 22.5528 21.2667 22.8235 21.556C23.1035 21.8453 23.2435 22.256 23.2435 22.788C23.2435 23.488 22.9401 24.048 22.3335 24.468C21.7268 24.888 20.9008 25.098 19.8555 25.098Z" fill="white"/>
</svg>
